<svg width="109" height="40" viewBox="0 0 109 40" fill="none" xmlns="http://www.w3.org/2000/svg">
<path d="M1 38.2806C3.35934 37.3599 7.90181 35.9862 9.55769 33.8572C11.4881 31.3754 9.95006 26.869 10.3961 23.9696C10.6827 22.1068 10.2384 17.8849 11.9284 16.8286C14.0986 15.4722 18.7862 15.1454 21.2956 16.5395C23.414 17.7163 25.4375 20.5534 27.8006 21.0785C30.4717 21.6721 33.1299 20.587 35.6644 20.587C40.1016 20.587 42.6861 21.5342 45.234 25.155C46.9864 27.6452 49.1666 32.0358 52.5196 32.0358C56.2059 32.0358 56.8107 28.1593 57.1743 25.0683C57.7133 20.4867 60.3256 16.3692 60.3256 11.7691C60.3256 7.9658 62.9436 4.47767 65.9344 2.37303C69.4544 -0.104036 71.4259 0.983673 74.3764 3.93423C76.7454 6.30322 78.7923 9.21043 82.1824 10.179C85.5114 11.1302 91.3366 6.97296 93.6312 10.9885C94.997 13.3787 97.5185 16.2716 99.4713 17.8694C101.184 19.2704 104.804 21.6278 107.162 21.6278" stroke="black" stroke-width="2" stroke-linecap="round" stroke-linejoin="round"/>
</svg>
