<svg width="137" height="34" viewBox="0 0 137 34" fill="none" xmlns="http://www.w3.org/2000/svg">
<path d="M1 29.4891C2.69177 29.159 3.77117 29.1569 4.93191 27.9279C5.72417 27.089 6.03957 26.811 7.2448 26.4823C8.9532 26.0164 11.0299 24.775 12.6801 24.0249C15.8839 22.5686 20.652 23.2443 24.1578 23.2443C28.1905 23.2443 29.1206 21.527 31.7036 18.792C34.2207 16.1268 33.6494 11.8358 35.2308 8.6731C36.6695 5.79558 39.6312 3.17024 42.3718 1.64769C45.8837 -0.303368 48.9472 2.62223 51.4788 4.2497C54.6281 6.27423 57.9026 8.95816 58.7644 12.8363C59.1935 14.7673 61.1423 16.7679 61.3664 18.5607C61.4523 19.2481 62.6124 21.8912 63.1589 22.2035C64.3832 22.9031 64.1677 25.4183 65.2405 26.3378C66.3163 27.2599 67.2851 28.767 68.016 30.0095C68.5015 30.8348 72.5031 32.6115 73.5958 32.6115C75.3887 32.6115 76.4598 32.9831 77.4988 31.4551C79.3615 28.7159 84.3515 28.1499 87.1262 26.6558C88.871 25.7163 90.0672 25.839 91.6653 24.4007C92.3894 23.7491 95.4365 22.8924 96.5224 22.695C98.7487 22.2902 100.708 22.2035 102.998 22.2035C104.617 22.2035 105.613 20.2504 106.641 20.1219C108.02 19.9495 108.626 18.4025 109.995 18.0114C111.446 17.5969 112.887 15.6904 114.447 15.0335C116.53 14.1566 118.38 13.8771 120.721 13.8771C122.727 13.8771 126.735 13.8333 128.498 12.9519C131.375 11.5137 133.529 8.96217 136.304 7.1119" stroke="black" stroke-linecap="round" stroke-linejoin="round"/>
</svg>
